<?xml version="1.0" standalone="no"?>
<!DOCTYPE svg PUBLIC "-//W3C//DTD SVG 20010904//EN" "http://www.w3.org/TR/2001/REC-SVG-20010904/DTD/svg10.dtd">
<svg version="1.0" xmlns="http://www.w3.org/2000/svg"
    width="512.000000pt" height="512.000000pt" viewBox="0 0 512.000000 512.000000"
    preserveAspectRatio="xMidYMid meet">
    <g transform="translate(0.000000,512.000000) scale(0.100000,-0.100000)"
        fill="#00adb5" stroke="none">
        <path
            d="M2910 4370 c-78 -9 -331 -33 -475 -46 -149 -13 -411 -88 -560 -159
-49 -24 -115 -54 -146 -68 -30 -13 -143 -83 -250 -154 -187 -126 -198 -135
-324 -273 -71 -78 -159 -175 -195 -214 -79 -86 -94 -106 -163 -227 -30 -52
-75 -129 -99 -171 -33 -56 -48 -96 -56 -146 -7 -38 -23 -90 -38 -116 -14 -25
-34 -72 -44 -104 -10 -31 -30 -88 -44 -127 -30 -85 -50 -252 -43 -355 4 -63
12 -90 51 -169 25 -52 46 -100 46 -107 0 -35 54 -129 127 -220 130 -163 137
-176 138 -253 0 -59 4 -73 29 -105 40 -54 104 -80 170 -72 62 9 207 56 276 91
27 14 53 25 58 25 4 0 16 -18 26 -40 25 -58 65 -86 174 -121 130 -42 231 -44
387 -5 140 34 202 63 265 122 28 26 51 45 53 43 1 -2 10 -20 21 -39 10 -19 52
-94 93 -166 l74 -132 4 -108 c2 -60 7 -162 11 -226 l6 -118 64 -20 c35 -10 75
-27 89 -36 24 -15 29 -15 63 -1 20 8 61 18 91 21 67 7 83 21 105 93 43 135
121 242 212 290 33 17 120 52 194 78 244 86 281 109 338 219 23 45 27 65 30
174 l4 124 34 14 c37 16 68 57 86 117 17 56 118 146 197 175 81 31 230 129
298 197 54 55 92 121 93 162 0 12 14 38 30 57 17 18 40 56 52 82 11 27 40 72
64 99 62 73 94 143 94 204 0 27 9 72 19 99 32 80 34 127 12 254 -15 82 -30
137 -52 180 -18 35 -40 87 -50 116 -19 55 -39 87 -100 162 -23 29 -47 76 -64
130 -30 90 -37 99 -251 315 -50 51 -403 287 -476 319 -29 12 -82 31 -118 40
-36 10 -95 28 -132 42 -156 55 -321 73 -498 54z m293 -44 c90 -15 185 -42 202
-57 5 -5 -11 -9 -38 -9 -26 0 -64 -7 -85 -16 -33 -14 -35 -17 -20 -28 14 -10
9 -14 -37 -23 -43 -9 -64 -9 -112 4 -53 14 -69 14 -194 -2 l-136 -18 -76 24
c-42 13 -73 26 -69 30 15 14 292 99 322 99 17 0 58 -9 92 -21 58 -19 210 -39
197 -26 -3 4 -41 14 -85 23 -153 31 -124 46 39 20z m-508 -40 c-192 -72 -260
-98 -262 -100 -1 -1 48 -1 110 -1 111 0 167 -8 167 -24 0 -12 -89 -39 -207
-62 l-102 -21 -33 25 c-18 14 -54 31 -81 37 -26 7 -49 16 -52 20 -12 19 295
126 415 145 133 20 142 16 45 -19z m-335 -32 c-58 -18 -118 -36 -135 -39 l-30
-6 32 21 c28 19 181 59 223 58 8 0 -32 -15 -90 -34z m1232 -65 c51 -32 72 -48
54 -44 -15 3 -92 15 -169 26 -134 19 -170 29 -153 46 8 8 83 20 143 22 34 1
57 -8 125 -50z m-1433 37 c-2 -2 -33 -19 -69 -39 -84 -44 -139 -62 -152 -49
-9 9 25 25 167 76 40 15 62 19 54 12z m1528 -52 c37 -21 63 -44 50 -44 -3 0
-36 18 -73 41 -38 22 -58 38 -44 34 14 -4 44 -18 67 -31z m-1486 -2 c-10 -19
-112 -53 -153 -51 -36 1 100 61 155 68 4 1 3 -7 -2 -17z m929 -15 c30 -12 55
-28 55 -36 0 -21 -399 -153 -440 -145 -59 11 -60 17 -12 83 25 33 47 66 49 73
5 13 177 45 248 47 25 0 69 -9 100 -22z m208 -10 c26 -13 86 -38 135 -57 79
-30 109 -50 73 -50 -7 0 -45 -13 -83 -29 -131 -54 -124 -56 -193 49 -33 51
-57 96 -54 101 10 17 74 9 122 -14z m218 -16 c193 -32 205 -36 242 -76 19 -20
32 -38 30 -40 -8 -9 -165 23 -196 39 -18 9 -83 37 -145 62 -62 25 -98 42 -82
40 17 -3 84 -14 151 -25z m-1246 -33 l44 -19 -159 -78 c-168 -82 -302 -160
-404 -237 -42 -31 -75 -48 -104 -52 -31 -4 -76 -29 -179 -99 l-138 -94 0 -63
0 -62 -71 -23 c-39 -12 -72 -21 -74 -19 -2 2 1 39 6 82 10 96 12 98 170 208
117 81 139 106 139 159 0 11 19 33 43 50 72 52 376 197 501 238 128 43 146 43
226 9z m-356 5 c12 -3 15 -8 8 -15 -14 -14 -342 -177 -342 -170 0 3 11 24 25
47 31 54 77 88 167 124 69 28 84 30 142 14z m767 -10 c-54 -74 -73 -86 -366
-230 -331 -162 -335 -163 -493 -146 l-73 8 48 35 c86 64 181 119 341 199 146
74 166 81 292 105 74 15 158 33 185 40 28 8 58 15 68 15 17 1 17 -1 -2 -26z
m1146 -37 c18 -16 30 -33 26 -39 -6 -9 -93 71 -93 86 0 11 21 -4 67 -47z
m-608 -33 c38 -52 41 -58 24 -65 -10 -4 -125 -52 -257 -108 -131 -56 -239
-100 -240 -98 -2 2 2 46 8 98 l11 95 185 67 c102 36 194 67 206 67 14 1 34
-17 63 -56z m400 -20 c52 -30 101 -64 149 -105 31 -26 31 -28 10 -28 -80 1
-165 23 -249 66 -50 25 -89 47 -87 50 6 5 110 42 122 43 5 1 30 -11 55 -26z
m138 -8 c38 -5 72 -20 123 -52 40 -25 97 -56 128 -69 52 -20 60 -28 92 -87 19
-35 48 -81 63 -101 15 -20 24 -36 20 -35 -4 0 -46 13 -93 28 -71 24 -97 39
-158 92 -40 35 -89 83 -108 106 -18 22 -58 58 -86 79 -69 49 -78 58 -53 51 11
-3 43 -9 72 -12z m171 -2 c27 -17 143 -101 151 -109 3 -2 -9 0 -25 6 -51 18
-187 95 -192 108 -6 18 34 15 66 -5z m-2370 -45 c-43 -80 -104 -129 -228 -185
-63 -29 -117 -50 -119 -47 -11 10 61 68 209 168 85 58 156 105 158 105 2 1 -7
-18 -20 -41z m1114 6 c55 -16 58 -18 58 -49 0 -17 -7 -72 -16 -122 l-15 -91
57 -128 c31 -71 65 -145 75 -165 l18 -36 -119 -82 c-65 -44 -122 -81 -127 -81
-5 0 -24 15 -42 34 l-32 33 59 189 c59 188 80 264 69 254 -4 -3 -38 -100 -78
-215 -39 -116 -72 -211 -73 -212 -4 -4 -186 148 -186 155 0 4 32 109 72 234
l71 227 71 35 c39 20 73 36 75 36 3 0 31 -7 63 -16z m841 -46 c103 -50 107
-54 107 -85 0 -61 -13 -76 -111 -126 -51 -26 -94 -45 -96 -43 -2 1 -7 43 -12
92 l-8 89 -2 -96 -1 -95 -131 -58 c-72 -32 -132 -56 -134 -54 -3 4 52 311 63
347 6 20 23 28 102 51 52 16 100 29 105 29 6 1 58 -22 118 -51z m-363 -42 c0
-24 -50 -289 -60 -321 -8 -23 -36 -47 -113 -97 l-102 -68 -29 58 c-42 83 -118
263 -113 268 8 9 392 173 405 174 6 0 12 -6 12 -14z m-734 -11 c-3 -9 -35
-107 -71 -218 l-66 -202 -176 -120 c-289 -196 -405 -296 -417 -359 l-7 -36
-42 6 c-23 4 -43 7 -44 8 -1 1 12 52 28 115 21 81 34 166 44 295 20 243 34
336 52 343 8 3 67 2 131 -3 109 -8 117 -10 114 -29 -2 -11 -35 -102 -74 -203
-39 -101 -68 -185 -65 -188 7 -7 87 182 131 307 l37 105 137 63 c75 34 166 78
202 96 72 38 95 43 86 20z m1396 -26 c37 -20 160 -132 179 -163 23 -37 24 -69
4 -89 -11 -11 -30 -13 -81 -9 l-67 5 -98 101 c-81 83 -98 107 -99 132 0 17 3
34 8 38 9 10 129 -2 154 -15z m478 -188 c0 -6 -9 -11 -19 -11 -24 0 -101 86
-136 154 l-27 51 91 -91 c50 -50 91 -96 91 -103z m-2828 127 c-5 -19 -40 -49
-117 -104 -60 -42 -120 -86 -132 -97 l-23 -20 0 60 0 60 131 58 c71 32 133 63
136 68 9 15 12 2 5 -25z m2244 -93 l54 -56 -50 -99 c-28 -55 -50 -107 -50
-115 0 -12 -23 -4 -94 33 -113 58 -117 53 -9 -10 87 -51 108 -71 118 -109 8
-34 13 -30 -290 -204 -241 -139 -323 -180 -333 -170 -5 5 54 499 63 531 6 19
271 138 286 128 5 -3 9 -12 9 -20 0 -15 37 -94 44 -94 2 0 -4 23 -15 50 -10
28 -19 57 -19 65 0 13 198 123 223 124 5 1 33 -24 63 -54z m-2039 -27 c-3 -18
-13 -114 -21 -213 -9 -99 -20 -211 -26 -250 -10 -76 -55 -242 -71 -261 -7 -8
-26 -7 -76 7 -36 10 -67 20 -68 21 -5 6 -47 516 -43 532 5 27 248 194 282 195
26 1 28 -1 23 -31z m2414 8 c25 -8 70 -26 98 -41 70 -35 99 -95 108 -222 4
-58 2 -85 -4 -78 -110 111 -286 355 -256 355 5 0 29 -6 54 -14z m-2916 -123
c-5 -30 -9 -32 -75 -47 -116 -27 -116 -25 -7 90 l82 87 3 -49 c2 -27 1 -63 -3
-81z m2884 26 c9 -10 32 -43 50 -75 l35 -57 -45 -38 c-24 -20 -56 -45 -71 -54
-27 -16 -27 -16 -49 27 -12 24 -41 75 -65 115 -24 39 -44 75 -44 79 0 4 29 4
65 0 62 -6 65 -5 82 20 11 18 19 22 22 13 2 -7 11 -21 20 -30z m276 -18 c8
-25 40 -77 71 -116 78 -98 84 -112 54 -135 -14 -10 -25 -18 -26 -17 -3 4 -164
321 -164 323 0 0 11 -1 25 -3 18 -4 28 -16 40 -52z m-474 -43 c33 -51 102
-178 155 -281 l95 -188 -28 -45 c-15 -24 -30 -44 -33 -44 -3 0 -62 57 -131
128 -97 98 -136 145 -168 204 -67 124 -67 125 -14 229 26 49 51 89 55 89 5 0
36 -42 69 -92z m-2693 -90 c-5 -40 -10 -73 -11 -74 -10 -11 -227 -81 -227 -74
0 5 17 47 39 93 l38 84 74 21 c41 11 79 21 85 21 7 1 8 -21 2 -71z m1922 48
c0 -25 -61 -460 -68 -487 l-7 -26 -185 88 c-102 49 -189 95 -194 103 -15 22 3
38 173 154 86 58 181 123 211 144 61 41 70 45 70 24z m-2120 -32 c0 -4 -25
-58 -55 -120 -55 -113 -55 -114 -90 -114 -34 0 -35 1 -24 23 17 31 87 135 121
180 27 33 48 47 48 31z m3400 -86 c31 -59 37 -92 20 -118 -8 -13 -11 -12 -25
5 -28 37 -32 50 -39 125 -7 83 -5 83 44 -12z m-1977 1 c42 -34 77 -64 77 -68
0 -3 -84 -39 -186 -80 l-186 -75 -71 13 c-40 6 -75 15 -80 20 -7 7 339 250
358 251 6 0 45 -28 88 -61z m1830 -237 l25 -103 -22 7 c-75 23 -107 59 -166
187 -22 48 -40 89 -40 92 0 2 30 29 67 59 l68 54 22 -96 c12 -53 33 -143 46
-200z m64 175 l27 -38 -19 -95 c-10 -52 -21 -94 -25 -94 -4 0 -68 244 -87 335
-5 22 57 -43 104 -108z m-2942 61 c3 -13 12 -103 20 -200 l16 -177 -40 -78
c-65 -130 -122 -270 -115 -286 4 -11 -27 -32 -118 -80 -124 -66 -264 -127
-290 -127 -12 0 -12 15 1 99 l16 99 77 55 c103 74 208 159 233 188 14 16 4 11
-31 -14 -57 -41 -69 -45 -55 -19 5 9 23 58 40 109 30 91 30 93 16 160 -23 108
-20 129 25 189 35 46 48 55 112 77 91 32 87 31 93 5z m-239 -73 c-9 -14 -63
-87 -119 -163 -56 -76 -124 -172 -152 -215 -49 -76 -50 -77 -92 -77 -23 0 -44
3 -46 8 -3 4 3 44 12 88 14 71 22 88 58 127 23 25 62 74 88 109 45 62 48 64
153 105 59 23 109 42 111 43 2 0 -4 -11 -13 -25z m3378 -16 c-3 -5 -10 -7 -15
-3 -5 3 -7 10 -3 15 3 5 10 7 15 3 5 -3 7 -10 3 -15z m-740 -25 c9 -21 13 -41
9 -45 -14 -14 -327 -186 -531 -291 -106 -55 -196 -107 -201 -116 -4 -10 -16
-50 -26 -91 -12 -49 -35 -102 -70 -160 -29 -47 -96 -162 -150 -256 -54 -93
-106 -178 -114 -188 -9 -10 -76 -50 -151 -87 -74 -38 -144 -76 -155 -85 -11
-9 3 -5 31 9 62 30 254 116 254 113 0 -1 -17 -47 -38 -102 l-38 -100 -200 -27
c-298 -41 -464 -59 -475 -53 -13 9 -9 80 9 165 l17 75 190 128 c274 185 349
231 545 332 168 86 176 92 198 136 12 25 29 83 37 130 18 102 20 105 200 194
117 58 533 294 595 338 35 24 44 22 64 -19z m-1154 -80 c0 -12 -20 -84 -44
-161 -24 -76 -56 -178 -71 -228 -14 -49 -28 -96 -31 -104 -4 -11 -203 186
-352 350 l-43 47 37 23 c20 12 123 57 228 100 l191 77 43 -41 c24 -24 42 -50
42 -63z m1892 14 c31 -88 34 -101 28 -143 l-5 -40 -22 55 c-12 30 -22 47 -22
37 -1 -10 8 -35 19 -57 14 -28 20 -59 20 -110 0 -38 -4 -70 -8 -70 -4 0 -21
53 -36 118 -16 64 -37 140 -47 169 -14 43 -15 54 -4 63 7 6 16 23 20 37 6 24
8 25 22 10 8 -8 24 -39 35 -69z m59 11 c18 -37 53 -169 45 -176 -2 -2 -54 123
-82 200 -13 35 16 16 37 -24z m-176 -9 c14 -26 85 -283 85 -306 0 -16 -63 -4
-77 15 -7 9 -29 40 -49 69 l-37 53 23 104 c13 57 27 102 32 99 4 -3 15 -18 23
-34z m-3265 -91 c14 -84 13 -87 -42 -231 -29 -76 -32 -79 -116 -143 -48 -36
-91 -65 -96 -65 -5 0 -6 18 -2 40 3 22 9 75 13 118 3 42 11 87 17 98 29 56
202 282 207 271 3 -7 12 -46 19 -88z m-291 59 c-36 -50 -108 -122 -115 -115
-8 8 72 134 89 141 7 2 20 5 30 5 17 1 16 -2 -4 -31z m1181 -8 c78 -19 77 -17
38 -58 -39 -42 -170 -225 -270 -381 -38 -57 -68 -96 -68 -85 0 10 10 102 22
203 l22 184 90 78 c53 47 97 77 106 75 8 -3 35 -10 60 -16z m1734 -150 l-27
-139 -101 -31 c-56 -17 -205 -65 -333 -106 -127 -40 -234 -74 -238 -74 -9 0 1
71 15 115 9 26 30 40 153 102 78 40 234 124 347 186 146 82 206 110 208 100 2
-8 -9 -77 -24 -153z m209 43 l108 -109 -111 -184 c-128 -212 -123 -225 7 -20
48 76 89 137 91 136 1 -2 -8 -85 -20 -185 -14 -121 -26 -188 -36 -197 -11 -12
-44 -14 -159 -12 -124 3 -147 6 -156 20 -8 12 -1 61 31 195 22 98 53 237 67
308 37 190 33 177 53 166 9 -5 66 -59 125 -118z m-1110 9 c103 -50 187 -96
187 -102 0 -6 -17 -18 -37 -27 -21 -9 -54 -31 -73 -49 -29 -26 -51 -34 -125
-48 -89 -17 -229 -51 -259 -62 -18 -7 -19 -12 56 224 28 89 54 161 57 159 3
-2 90 -44 194 -95z m-617 -164 c166 -178 214 -232 214 -241 0 -3 -15 -8 -32
-12 -114 -23 -377 -113 -520 -178 -58 -27 -79 -32 -88 -23 -10 9 -10 6 -1 -11
6 -13 14 -23 16 -23 3 0 60 22 127 49 161 64 309 114 432 146 55 14 102 28
105 31 3 3 13 26 22 52 15 44 19 48 72 64 90 27 291 67 300 58 10 -8 -20 -144
-40 -183 -10 -20 -47 -44 -146 -93 -185 -93 -239 -125 -525 -316 -236 -158
-299 -195 -309 -184 -2 2 -19 62 -38 133 -18 72 -51 175 -73 229 -22 54 -42
106 -45 116 -3 10 17 52 50 105 74 117 306 453 313 453 3 0 78 -78 166 -172z
m2374 74 c21 -40 22 -48 11 -96 -7 -30 -18 -62 -26 -72 -13 -18 -14 -18 -23 6
-11 29 -16 97 -14 190 2 72 -3 75 52 -28z m-388 60 c26 -10 50 -20 53 -24 6
-6 -44 -138 -53 -138 -9 0 -100 60 -111 73 -7 9 -1 26 21 60 17 26 33 47 37
47 3 0 27 -8 53 -18z m-3502 -37 c0 -36 -23 -115 -37 -127 -14 -12 -15 -9 -10
22 3 19 9 54 12 78 4 26 12 42 21 42 8 0 14 -7 14 -15z m3633 -57 c35 -48 34
-64 -7 -147 -34 -67 -49 -81 -87 -81 -16 0 -19 7 -19 43 0 79 60 254 79 231 4
-5 19 -26 34 -46z m-2845 6 c32 -9 62 -22 68 -29 8 -11 13 -10 23 7 11 18 19
20 63 15 28 -4 53 -8 55 -11 2 -2 -8 -91 -22 -197 -15 -107 -29 -253 -32 -326
l-6 -132 -31 -10 c-97 -29 -116 -25 -140 27 -16 36 -16 46 -2 144 9 58 15 143
15 189 l-2 84 -8 -95 c-5 -52 -15 -132 -21 -177 l-13 -83 -82 149 c-46 82 -83
155 -83 162 0 16 101 239 125 275 18 28 21 29 93 8z m2656 -64 l58 -35 -6 -64
c-4 -38 -18 -89 -36 -125 -15 -34 -37 -82 -48 -107 -16 -38 -26 -48 -52 -54
-17 -4 -33 -5 -36 -2 -2 2 7 94 21 203 14 109 25 205 25 212 0 16 0 16 74 -28z
m306 -37 c17 -21 20 -35 15 -62 -17 -89 -100 -197 -179 -231 -50 -22 -145 -40
-151 -29 -6 9 30 103 57 147 17 27 25 32 59 32 36 0 42 4 67 43 15 24 36 63
46 85 23 51 54 56 86 15z m-3615 -40 c-29 -222 -25 -215 -155 -282 l-79 -42
14 48 c8 27 32 102 54 168 l38 120 53 7 c29 3 57 11 63 17 17 17 19 14 12 -36z
m2859 20 c-3 -16 -14 -62 -24 -103 -10 -41 -26 -114 -35 -161 l-17 -86 -67 -7
c-36 -3 -94 -6 -129 -6 l-63 0 5 133 5 132 -17 -144 -17 -143 -47 -24 c-25
-13 -153 -71 -284 -129 -131 -59 -242 -109 -247 -112 -12 -7 -1 12 130 239 63
109 120 201 126 205 12 8 666 231 680 232 4 1 5 -11 1 -26z m-3019 -15 c-3
-18 -29 -103 -57 -188 l-51 -155 -18 50 c-24 69 -23 77 12 121 18 22 49 76 71
122 21 45 41 82 44 82 3 0 3 -15 -1 -32z m3851 -15 c6 -32 0 -51 -44 -138 -28
-55 -53 -112 -56 -127 -7 -32 -16 -34 -57 -13 l-29 16 51 52 c58 58 99 137
107 203 6 54 19 57 28 7z m-3920 -20 c-8 -15 -15 -25 -16 -21 0 12 23 58 27
54 3 -2 -2 -17 -11 -33z m3924 -172 c-33 -62 -65 -99 -77 -88 -3 4 18 55 48
113 52 103 54 106 57 71 2 -27 -6 -54 -28 -96z m-3222 -88 c27 -49 66 -122 87
-163 20 -41 77 -141 126 -221 49 -80 89 -154 89 -165 0 -29 -11 -64 -20 -64
-15 0 -511 402 -625 507 l-31 28 156 81 c85 45 158 82 162 83 4 1 29 -38 56
-86z m-523 -44 c-26 -125 -39 -154 -111 -237 -37 -42 -70 -78 -73 -79 -3 -2
-17 13 -30 33 -24 35 -24 37 -12 112 7 42 16 81 21 85 4 5 22 -9 40 -30 33
-39 26 -15 -12 39 -11 16 -17 32 -13 37 3 5 46 33 95 61 49 28 92 56 96 61 15
25 14 -5 -1 -82z m-246 -69 c0 -60 -23 -163 -38 -168 -12 -4 -13 16 -8 127 4
73 10 137 14 144 9 15 31 -55 32 -103z m3808 92 c11 -7 -165 -54 -284 -77 -34
-7 -74 7 -55 19 20 12 255 65 292 65 19 0 41 -3 47 -7z m63 -57 c0 -13 -8 -29
-18 -34 -10 -5 -86 -23 -171 -40 -84 -17 -156 -33 -161 -36 -4 -3 -13 8 -18
24 l-10 29 61 11 c34 6 114 24 177 41 141 36 140 36 140 5z m-779 -16 c-49
-30 -32 -34 20 -4 37 21 57 25 127 25 45 0 82 -4 82 -8 0 -13 -40 -47 -107
-89 -57 -37 -374 -203 -387 -203 -9 0 -7 263 2 277 7 11 43 14 237 21 l60 2
-34 -21z m-2589 -116 c73 -64 157 -135 186 -157 64 -50 58 -52 -108 -37 -65 6
-145 10 -177 10 -49 -2 -43 -3 37 -10 52 -5 150 -16 218 -24 l122 -14 124
-101 c69 -55 127 -104 130 -109 9 -15 -38 -75 -64 -82 -14 -4 -45 -7 -70 -8
-38 -1 -49 4 -81 35 -45 44 -209 142 -397 237 l-142 72 -25 78 c-29 92 -29 85
-10 152 15 49 18 53 58 62 23 6 48 11 54 12 7 0 73 -52 145 -116z m677 32 c54
-150 52 -167 -13 -95 -34 38 -36 44 -36 110 0 39 4 70 9 70 5 0 23 -38 40 -85z
m1616 -102 l-7 -113 -86 -40 c-47 -22 -146 -61 -221 -86 -146 -48 -177 -65
-257 -138 -29 -25 -58 -46 -66 -46 -7 0 -29 13 -48 29 l-35 29 13 48 c7 27 30
85 51 129 l38 80 284 128 c156 70 295 134 309 142 24 13 25 12 28 -18 2 -18 1
-83 -3 -144z m629 154 c36 -29 31 -46 -30 -112 l-45 -50 4 82 c7 112 16 123
71 80z m-94 -45 c0 -22 -20 -51 -85 -122 l-85 -93 0 -65 0 -64 -71 96 c-39 54
-70 98 -68 100 2 1 51 29 109 60 58 32 123 71 144 87 50 36 56 36 56 1z m510
13 c0 -7 -39 -26 -85 -39 -35 -11 -42 -11 -39 -1 6 15 124 53 124 40z m-160
-49 c0 -14 -17 -22 -104 -50 -60 -19 -76 -20 -76 -3 0 26 19 38 81 51 83 19
99 19 99 2z m-215 -33 c-7 -37 -67 -164 -104 -218 l-21 -30 0 43 c0 37 6 49
55 102 67 73 71 88 8 29 -58 -54 -70 -36 -16 27 21 25 44 55 52 65 22 31 34
23 26 -18z m303 18 c16 -9 7 -75 -12 -90 -24 -19 -203 -73 -259 -79 l-59 -5
21 42 c24 47 26 48 185 93 70 19 111 35 103 40 -6 4 -7 8 -2 8 6 0 16 -4 23
-9z m-451 -134 c-8 -140 -27 -206 -74 -258 -36 -40 -118 -89 -147 -89 -9 0
-20 9 -26 21 -13 24 -4 42 64 118 44 49 45 51 39 105 l-6 55 74 80 c40 45 75
81 77 81 3 0 2 -51 -1 -113z m-3089 35 c12 -38 22 -73 22 -79 0 -14 -97 -36
-113 -27 -7 4 -22 16 -34 27 l-22 20 56 63 c30 35 59 64 62 64 4 0 17 -31 29
-68z m960 -26 c28 -30 52 -57 52 -60 0 -6 -141 -108 -144 -104 -2 2 -30 49
-63 104 l-61 101 67 15 c36 8 73 11 81 7 9 -4 39 -32 68 -63z m-1174 1 c29
-38 32 -55 13 -81 -12 -16 -16 -12 -40 38 -39 78 -21 106 27 43z m3038 -54
c30 -38 63 -81 75 -98 l21 -30 -54 -60 c-30 -33 -54 -66 -54 -72 0 -8 -15 -13
-41 -13 -30 0 -69 14 -135 47 -52 27 -94 51 -94 56 0 4 29 48 65 97 43 57 81
98 108 113 23 14 45 25 48 26 4 1 31 -29 61 -66z m657 21 c-51 -55 -166 -137
-246 -178 -71 -35 -153 -57 -153 -40 1 5 15 25 33 46 24 27 47 40 92 53 44 13
70 27 97 56 26 28 60 48 115 68 101 38 103 38 62 -5z m-850 -33 c-12 -16 -93
-130 -110 -154 -4 -5 -31 -2 -63 7 -88 26 -78 42 62 109 64 30 119 56 121 56
2 1 -3 -7 -10 -18z m-2730 -77 c11 -19 16 -37 11 -44 -6 -10 -21 -2 -59 29
l-51 43 16 30 16 31 24 -29 c13 -16 32 -43 43 -60z m3381 68 c0 -20 -76 -62
-112 -62 -14 0 24 59 41 63 29 8 71 7 71 -1z m-3105 -73 c206 -104 400 -227
385 -242 -7 -7 -274 38 -354 59 -34 9 -107 39 -163 68 -92 46 -102 53 -96 73
3 16 -3 34 -21 58 l-26 34 47 4 c27 2 62 4 78 5 19 1 72 -19 150 -59z m855 20
c0 -12 -10 -38 -22 -57 -12 -20 -38 -83 -58 -141 -34 -99 -39 -107 -76 -128
-42 -23 -124 -46 -124 -34 0 4 16 34 36 67 20 32 50 88 66 124 48 107 50 111
107 151 62 45 71 47 71 18z m85 -109 c-8 -41 -16 -95 -20 -120 -4 -35 -19 -62
-62 -117 -31 -39 -61 -70 -65 -67 -19 12 -7 131 21 211 39 112 60 146 101 159
19 7 36 11 36 10 1 0 -4 -35 -11 -76z m-1222 -57 c8 -35 13 -63 11 -63 -8 0
-73 128 -79 155 l-7 30 30 -30 c22 -22 35 -48 45 -92z m2457 92 c-1 -6 -56
-31 -123 -57 -67 -27 -139 -58 -161 -69 -48 -27 -45 -7 7 34 21 18 83 46 149
68 114 39 131 42 128 24z m-25 -107 c-19 -45 -35 -83 -35 -84 0 -4 -197 -64
-208 -64 -5 0 -12 15 -15 33 -3 17 -8 40 -12 49 -4 11 1 20 17 29 24 14 268
116 280 118 4 0 -8 -36 -27 -81z m148 63 c84 -21 187 -65 187 -80 0 -5 -8 -12
-17 -15 -28 -8 -270 -46 -297 -46 l-24 0 31 80 c18 44 35 80 38 80 4 0 40 -8
82 -19z m-2438 -54 c6 -5 -13 2 -42 17 -28 14 -55 31 -59 37 -7 11 82 -36 101
-54z m-1 -38 c-11 -18 -32 -8 -58 25 l-26 35 45 -26 c25 -13 43 -29 39 -34z
m-56 -46 c-6 -7 -14 -13 -18 -13 -11 0 -30 57 -30 89 0 24 3 22 30 -18 22 -34
26 -48 18 -58z m3083 78 c-28 -52 -156 -131 -214 -131 -47 0 -26 23 44 48 35
13 86 41 114 62 56 43 71 49 56 21z m-1182 -59 l23 -19 -28 -22 c-52 -41 -287
-183 -359 -218 -91 -43 -202 -67 -281 -59 -72 6 -182 47 -219 82 -25 24 -26
25 -9 53 9 16 38 52 63 81 l46 52 115 9 c63 6 223 25 355 43 133 18 247 29
255 24 8 -4 26 -16 39 -26z m-1744 18 c39 -15 216 -48 344 -65 63 -8 116 -17
119 -19 8 -8 -103 -37 -203 -52 -138 -22 -272 -15 -350 17 -33 13 -60 30 -60
36 0 13 100 93 115 93 5 0 20 -4 35 -10z m2670 -9 c9 -16 -56 -56 -135 -84
-116 -41 -391 -127 -406 -127 -9 0 -3 23 17 73 l30 74 123 17 c67 9 155 25
196 35 83 21 166 26 175 12z m-770 -45 c25 -65 16 -72 -38 -33 l-48 34 27 22
c15 11 30 21 35 21 4 0 15 -20 24 -44z m-44 -57 c65 -44 103 -101 72 -107 -36
-9 -102 21 -144 64 l-44 45 25 19 c14 11 26 20 28 20 2 0 30 -18 63 -41z m268
-21 c-12 -29 -25 -64 -30 -78 -8 -23 -14 -25 -59 -22 -53 4 -61 10 -78 59
l-11 33 92 29 c51 16 95 30 99 30 4 1 -2 -23 -13 -51z m-1529 36 c0 -16 -65
-126 -105 -177 -51 -65 -111 -99 -258 -149 -150 -50 -220 -41 -268 35 -16 25
-19 44 -16 86 3 46 9 59 36 83 28 25 39 28 96 28 36 0 65 -3 65 -6 0 -4 -22
-36 -48 -73 -27 -36 -52 -73 -57 -81 -11 -21 48 46 87 97 l31 42 57 -49 c31
-27 63 -56 70 -65 7 -8 17 -15 23 -15 7 0 -24 36 -68 80 -44 44 -76 80 -73 80
59 0 245 37 302 60 66 27 126 38 126 24z m2216 -38 c-15 -29 -62 -63 -72 -54
-2 2 15 25 38 51 45 53 62 54 34 3z m-238 29 c-7 -8 -165 -103 -266 -161 l-93
-53 -54 26 c-31 15 -54 32 -52 37 2 5 104 42 228 82 223 71 247 78 237 69z
m182 -9 c0 -3 -181 -150 -281 -229 -27 -21 -49 -35 -49 -31 0 4 57 65 127 136
118 119 130 128 165 128 21 0 38 -2 38 -4z m-140 -12 c0 -3 -51 -59 -114 -123
-62 -65 -116 -127 -120 -138 -3 -11 -25 -35 -47 -53 -23 -18 -70 -59 -105 -92
-35 -33 -64 -56 -64 -52 0 5 -3 19 -6 32 -6 19 8 37 82 108 100 96 91 101 -14
7 l-69 -62 -10 45 -10 45 43 30 c37 25 424 258 432 259 1 0 2 -3 2 -6z m-2657
-28 l29 -11 -30 -22 -30 -22 -21 35 c-12 19 -21 37 -21 40 0 6 29 -2 73 -20z
m1802 -16 l40 -41 -85 3 c-59 2 -85 7 -85 15 0 13 63 62 80 63 6 0 29 -18 50
-40z m-980 8 c25 -90 58 -124 165 -171 91 -40 159 -50 256 -37 46 6 92 13 102
16 35 11 -75 -80 -125 -103 -90 -42 -239 -75 -338 -75 -74 0 -107 5 -186 31
-97 31 -124 50 -152 106 -20 42 -16 56 45 135 44 58 59 71 88 76 19 3 53 14
75 24 53 25 62 24 70 -2z m1925 -103 l0 -76 -77 7 c-43 4 -80 8 -82 10 -2 1
14 18 35 36 21 18 54 48 74 65 19 18 38 33 43 33 4 0 7 -34 7 -75z m-1110 34
c0 -12 -62 -39 -73 -32 -5 3 6 16 24 29 31 22 49 24 49 3z m310 -15 c8 -8 -15
-21 -84 -47 -53 -21 -104 -37 -114 -37 -12 0 -25 16 -40 51 l-21 51 124 -3
c72 -3 129 -9 135 -15z m161 -20 c4 -2 2 -22 -3 -45 -12 -45 -18 -43 -58 24
l-22 38 38 -7 c22 -3 42 -8 45 -10z m-530 -105 c27 -56 48 -103 45 -106 -14
-14 -216 115 -216 138 0 13 33 11 55 -4 95 -64 126 -68 40 -6 -25 18 -45 35
-45 39 0 5 52 35 67 39 2 1 26 -44 54 -100z m134 11 c25 -49 43 -90 40 -90 -2
0 -29 9 -60 21 -49 18 -58 27 -80 69 -14 27 -25 52 -25 54 0 8 53 35 67 36 7
0 33 -40 58 -90z m313 55 c20 -32 20 -34 3 -40 -10 -3 -40 -6 -67 -6 l-50 -2
4 -33 c2 -19 0 -34 -4 -34 -5 1 -38 16 -72 34 l-64 32 109 42 c59 22 111 41
115 41 3 1 15 -15 26 -34z m179 -51 c-29 -25 -71 -32 -82 -14 -4 6 -4 28 0 50
l7 39 51 -25 51 -26 -27 -24z m486 0 l57 -6 0 -48 c0 -79 -65 -181 -140 -220
-20 -10 -103 -41 -185 -70 -164 -57 -246 -95 -287 -135 -72 -67 -132 -169
-168 -282 -9 -30 -19 -43 -32 -43 -24 0 -23 21 3 106 28 92 44 120 94 175 23
25 45 55 49 66 7 22 74 55 276 138 208 85 323 139 309 144 -8 3 -52 35 -97 69
l-83 64 38 29 c30 23 45 28 73 24 19 -2 61 -7 93 -11z m-848 -57 c68 -41 71
-45 92 -107 25 -76 27 -90 11 -90 -18 0 -114 108 -153 171 -52 85 -50 86 50
26z m223 30 c7 -8 8 -27 2 -52 -4 -22 -11 -61 -15 -88 l-6 -48 -40 23 c-43 24
-63 70 -57 131 2 26 8 33 33 38 50 11 72 10 83 -4z m77 -47 c10 -11 20 -41 23
-69 l4 -49 -46 -27 c-26 -15 -49 -26 -51 -24 -3 4 22 156 30 177 6 17 19 15
40 -8z m416 -47 l88 -57 -42 -18 c-212 -96 -488 -203 -542 -212 -48 -8 -28 8
25 19 64 14 185 66 212 93 24 22 78 100 142 205 9 15 19 27 23 27 3 0 45 -26
94 -57z m-1001 -2 c47 -24 86 -44 88 -46 5 -4 -31 -155 -37 -155 -4 0 -22 28
-41 63 -18 34 -51 91 -72 126 -22 34 -35 61 -31 59 4 -2 46 -23 93 -47z m178
14 c22 -4 37 -16 48 -37 l16 -31 -43 7 c-33 5 -52 15 -76 43 -40 44 -42 58 -5
39 15 -7 42 -17 60 -21z m643 -22 c-5 -10 -31 -47 -58 -83 -36 -49 -62 -72
-103 -92 -58 -29 -151 -61 -157 -54 -3 2 28 21 69 42 45 24 106 70 162 121 48
46 90 83 92 83 3 0 0 -8 -5 -17z m-651 -141 c0 -20 5 -66 11 -101 7 -47 7 -78
-2 -113 -6 -27 -13 -47 -15 -45 -2 2 -15 55 -29 117 -25 113 -31 183 -18 216
11 29 53 -29 53 -74z m308 5 c-4 -46 -20 -40 -40 16 l-18 47 31 -15 c25 -14
30 -21 27 -48z m-254 -19 c-8 -40 -15 -77 -15 -83 -2 -15 -17 86 -18 123 -1
27 2 32 23 32 l24 0 -14 -72z m396 54 c0 -18 -105 -90 -116 -79 -14 14 10 44
54 69 57 32 62 33 62 10z m-308 -18 l31 -16 -7 -102 c-16 -248 -82 -503 -121
-465 -15 15 28 501 51 582 6 21 7 21 46 1z m94 -42 c6 -4 17 -24 24 -44 13
-35 12 -42 -23 -120 -46 -103 -61 -125 -54 -83 3 17 9 81 13 143 7 109 12 123
40 104z m-289 -370 c-16 -51 -31 -91 -33 -89 -2 2 -8 73 -14 158 -9 136 -8
162 7 222 l18 67 26 -132 27 -133 -31 -93z m378 211 c-24 -38 -56 -73 -78 -84
-14 -8 -12 0 10 45 25 51 36 62 72 65 10 1 9 -5 -4 -26z m-144 -209 c-17 -38
-30 -64 -31 -59 0 22 29 117 41 132 24 29 20 -3 -10 -73z m-166 -39 c-5 -64
-10 -85 -21 -85 -16 0 -15 16 8 128 16 75 22 57 13 -43z" />
        <path d="M2701 3734 c0 -11 3 -14 6 -6 3 7 2 16 -1 19 -3 4 -6 -2 -5 -13z" />
        <path d="M1565 3358 l-60 -62 63 53 c51 44 74 71 59 71 -1 0 -29 -28 -62 -62z" />
        <path d="M2358 1669 c-38 -22 -68 -42 -68 -45 0 -5 83 42 121 68 44 31 15 19
-53 -23z" />
        <path
            d="M1580 1582 c0 -7 0 -15 1 -18 0 -5 -32 -31 -117 -92 -25 -19 -43 -36
-40 -39 3 -3 20 5 38 19 58 43 64 43 30 -2 -24 -31 -14 -24 32 25 l66 70 35
-40 c19 -22 43 -58 54 -80 16 -33 20 -36 21 -17 0 14 4 20 11 17 7 -5 -92 124
-127 164 -2 2 -4 -1 -4 -7z" />
        <path
            d="M2040 1369 c-117 -15 -343 -80 -329 -94 3 -2 34 5 69 16 36 11 129
33 208 49 184 36 207 49 52 29z" />
    </g>
</svg>