<?xml version="1.0" standalone="no"?>
<!DOCTYPE svg PUBLIC "-//W3C//DTD SVG 20010904//EN"
 "http://www.w3.org/TR/2001/REC-SVG-20010904/DTD/svg10.dtd">
<svg version="1.0" xmlns="http://www.w3.org/2000/svg"
 width="700.000000pt" height="700.000000pt" viewBox="0 0 700.000000 700.000000"
 preserveAspectRatio="xMidYMid meet">
<metadata>
Created by potrace 1.14, written by Peter Selinger 2001-2017
</metadata>
<g transform="translate(0.000000,700.000000) scale(0.100000,-0.100000)"
fill="#000000" stroke="none">
<path d="M4097 5985 c-1 -2 -42 -5 -92 -9 -49 -3 -99 -8 -110 -10 -11 -2 -59
-7 -107 -10 -48 -4 -98 -9 -110 -11 -13 -2 -59 -6 -103 -10 -44 -4 -93 -8
-110 -10 -16 -2 -61 -6 -100 -10 -93 -8 -123 -13 -235 -37 -388 -81 -729 -233
-1130 -502 -221 -148 -273 -195 -515 -461 -49 -54 -112 -122 -138 -151 -117
-128 -179 -215 -287 -400 -145 -250 -155 -270 -183 -385 -13 -52 -42 -134 -64
-184 -48 -106 -128 -341 -138 -405 -4 -25 -9 -54 -11 -65 -20 -105 -23 -327
-4 -395 7 -25 30 -83 52 -130 22 -47 51 -116 64 -154 32 -93 79 -174 165 -287
196 -255 190 -244 200 -367 6 -83 10 -96 40 -137 37 -49 110 -92 171 -99 71
-8 255 42 419 115 48 22 92 39 98 39 6 0 22 -21 35 -47 44 -87 110 -130 271
-179 113 -33 278 -41 400 -18 209 39 362 100 450 179 86 78 68 92 210 -161
142 -254 128 -204 140 -489 10 -234 16 -339 20 -352 2 -6 41 -23 86 -38 46
-14 100 -35 121 -46 38 -20 39 -20 103 0 35 11 85 23 110 26 89 10 105 25 150
148 73 196 178 328 311 388 35 16 144 59 241 95 324 121 380 156 447 283 43
82 51 138 55 359 1 61 2 63 34 77 51 21 87 63 127 150 53 115 128 182 303 269
282 142 477 319 502 459 4 21 27 66 50 100 23 34 54 85 68 112 14 28 57 92 95
144 79 105 110 177 119 266 3 33 12 83 20 110 40 140 45 171 39 242 -12 137
-44 277 -82 361 -13 29 -44 101 -69 160 -31 73 -68 139 -114 201 -37 51 -77
116 -88 144 -12 29 -31 78 -44 111 -12 32 -39 79 -59 105 -73 92 -276 294
-355 353 -83 62 -449 308 -459 308 -3 0 -27 14 -53 30 -67 43 -490 178 -638
204 -74 13 -308 28 -318 21z m278 -71 c112 -16 284 -68 271 -81 -3 -3 -26 -7
-52 -9 -52 -4 -111 -19 -133 -33 -12 -8 -12 -12 -2 -24 25 -31 -101 -52 -189
-31 -76 18 -151 17 -321 -6 l-147 -19 -88 29 c-48 17 -92 34 -97 39 -9 9 30
25 173 70 187 59 248 73 293 65 53 -10 43 -7 107 -26 88 -25 263 -49 249 -34
-4 4 -59 20 -124 36 -65 16 -120 32 -124 36 -6 7 111 -1 184 -12z m-606 -19
c-3 -2 -94 -38 -203 -80 -109 -41 -205 -79 -214 -84 -10 -6 47 -11 149 -13
163 -5 203 -11 196 -31 -3 -10 -85 -42 -132 -52 -11 -2 -79 -16 -150 -31
l-131 -28 -46 32 c-25 17 -75 41 -112 53 -36 12 -66 25 -66 30 0 19 231 107
415 159 117 33 311 63 294 45z m-464 -51 c-84 -31 -269 -84 -279 -80 -30 11
230 95 294 95 20 0 17 -3 -15 -15z m1542 -83 c32 -16 78 -44 103 -61 l45 -32
-50 7 c-100 13 -120 16 -145 20 -14 3 -41 7 -60 10 -224 33 -256 58 -102 81
103 15 140 11 209 -25z m-1947 -12 c-133 -74 -250 -115 -250 -89 0 12 54 37
185 86 113 41 136 43 65 3z m2168 -62 c24 -16 41 -31 38 -34 -5 -5 -143 75
-152 88 -8 14 64 -21 114 -54z m-2058 28 c0 -8 -18 -24 -40 -35 -48 -24 -158
-51 -165 -40 -7 12 137 75 203 89 1 1 2 -6 2 -14z m1293 -45 c26 -13 47 -29
47 -35 0 -30 -500 -195 -590 -195 -34 0 -70 15 -70 29 0 5 27 50 61 99 65 96
64 96 179 117 198 37 275 34 373 -15z m327 -29 c203 -86 240 -103 234 -112 -3
-5 -13 -9 -22 -9 -9 0 -63 -18 -120 -41 -132 -51 -157 -52 -193 -9 -40 48
-117 175 -125 206 l-7 27 54 -5 c34 -3 100 -24 179 -57z m120 24 c183 -29 342
-60 370 -72 34 -14 110 -79 110 -95 0 -31 -206 22 -398 102 -91 39 -168 73
-171 76 -3 3 10 2 29 -1 19 -3 46 -8 60 -10z m-1621 -51 c20 -9 47 -20 61 -26
22 -8 2 -21 -215 -132 -255 -130 -316 -165 -490 -284 -110 -74 -139 -90 -184
-98 -13 -3 -46 -16 -73 -30 -62 -32 -328 -210 -346 -232 -8 -10 -11 -43 -10
-90 2 -84 4 -82 -92 -111 -108 -33 -104 -34 -101 29 3 66 17 144 30 168 16 30
73 77 196 165 166 118 188 141 200 207 3 19 16 45 28 58 61 65 562 306 757
365 131 39 169 41 239 11z m605 4 c-22 -38 -81 -102 -119 -128 -87 -60 -675
-349 -794 -390 -42 -15 -89 -22 -140 -23 -69 -1 -221 10 -228 16 -2 3 129 99
182 132 124 79 479 259 568 289 41 14 148 39 227 53 14 2 79 17 145 32 139 33
169 36 159 19z m-1067 -9 l28 -10 -40 -25 c-45 -27 -367 -188 -408 -203 -36
-14 -34 -5 11 59 50 72 92 104 198 150 94 41 157 50 211 29z m2601 -49 c28
-27 52 -54 52 -61 0 -14 -17 -2 -77 55 -41 38 -52 56 -35 56 4 0 31 -22 60
-50z m-844 -24 c48 -52 80 -106 70 -116 -9 -9 -569 -248 -648 -276 l-38 -14 6
68 c12 132 18 180 25 190 13 21 517 192 541 184 8 -2 28 -19 44 -36z m564 -56
c67 -36 203 -134 234 -167 l23 -25 -60 6 c-98 10 -126 17 -205 46 -80 29 -203
93 -207 107 -3 7 134 61 157 62 3 0 29 -13 58 -29z m191 -16 c59 -9 93 -24
205 -88 50 -29 120 -66 157 -83 55 -25 70 -38 99 -84 18 -30 55 -89 83 -132
27 -43 48 -79 46 -81 -6 -5 -187 57 -226 77 -47 25 -136 102 -238 206 -49 51
-120 115 -157 142 -38 28 -68 53 -68 55 0 2 12 2 27 0 14 -3 47 -8 72 -12z
m298 -44 c48 -32 102 -71 118 -85 l30 -25 -27 9 c-79 29 -258 133 -258 151 0
25 56 5 137 -50z m-3294 -22 c-37 -70 -113 -145 -192 -192 -74 -43 -271 -129
-279 -122 -9 10 73 78 213 175 152 106 278 191 283 191 2 0 -9 -24 -25 -52z
m1594 -25 c13 -17 11 -63 -8 -173 -5 -30 -12 -75 -15 -100 -3 -25 -7 -46 -9
-48 -3 -3 127 -294 178 -399 23 -48 23 -53 8 -66 -39 -35 -305 -207 -319 -207
-8 0 -35 20 -58 44 l-42 45 30 93 c17 51 39 122 50 158 11 36 26 85 33 110 64
208 79 271 56 230 -4 -8 -50 -136 -101 -285 -51 -148 -96 -273 -99 -277 -6 -7
-55 28 -145 105 -27 23 -63 54 -80 68 l-31 27 63 203 c35 112 80 255 99 317
l36 114 100 48 99 48 72 -19 c39 -11 77 -27 83 -36z m1073 -30 c85 -43 139
-76 146 -90 18 -38 5 -91 -31 -126 -34 -33 -230 -135 -240 -125 -8 8 -13 39
-21 126 -3 42 -8 79 -10 81 -2 2 -4 -47 -4 -111 l0 -114 -72 -33 c-93 -43
-278 -121 -285 -121 -3 0 -3 17 0 38 4 20 9 55 12 77 7 42 49 277 61 332 9 44
27 58 109 83 39 12 88 28 110 35 22 7 51 14 65 14 14 1 86 -29 160 -66z m-495
-90 c-8 -68 -62 -351 -75 -394 -13 -45 -28 -59 -175 -158 l-120 -80 -54 112
c-94 196 -145 329 -129 338 7 5 56 27 108 50 52 23 113 50 135 60 22 10 69 30
105 44 36 14 79 33 96 40 107 49 117 48 109 -12z m-1001 16 c-1 -8 -43 -140
-93 -294 l-92 -280 -191 -130 c-358 -243 -563 -408 -601 -482 -8 -15 -18 -42
-21 -60 -7 -30 -9 -31 -44 -26 -86 14 -82 3 -50 133 27 111 45 207 53 280 5
52 14 142 20 208 13 140 18 183 31 280 21 155 10 146 173 139 146 -7 179 -11
194 -26 5 -5 -24 -95 -72 -222 -95 -256 -114 -309 -108 -315 7 -7 84 174 158
371 l67 179 219 103 c120 56 245 116 278 133 62 31 81 33 79 9z m1902 -34 c40
-17 77 -46 178 -144 96 -92 123 -158 83 -198 -15 -15 -86 -19 -177 -10 -16 1
-58 37 -126 107 -162 167 -182 197 -163 249 9 22 12 23 89 17 44 -3 96 -12
116 -21z m648 -236 c21 -35 5 -47 -31 -23 -53 34 -114 108 -163 199 l-33 60
106 -105 c58 -57 112 -117 121 -131z m-3853 152 c-16 -36 -24 -44 -207 -176
-82 -60 -152 -114 -156 -119 -4 -6 -7 27 -7 73 l1 83 81 37 c45 19 129 59 187
87 58 28 107 50 109 48 2 -2 -2 -16 -8 -33z m3078 -135 l65 -65 -67 -139 c-37
-76 -67 -143 -67 -150 0 -21 -23 -14 -130 38 -56 28 -104 49 -105 48 -2 -2 45
-33 103 -69 169 -105 190 -156 91 -221 -78 -52 -565 -331 -671 -384 -100 -50
-118 -54 -118 -21 0 21 15 166 25 246 2 20 9 77 15 126 6 50 13 101 15 115 6
43 17 134 21 170 2 21 12 43 26 54 30 25 224 117 307 145 66 23 80 19 81 -17
0 -18 38 -99 49 -106 5 -3 -2 26 -16 65 -29 83 -30 81 67 138 117 70 211 111
229 101 9 -5 45 -38 80 -74z m-2795 -2 c3 -9 4 -19 2 -23 -2 -3 -7 -33 -10
-66 -6 -71 -18 -190 -21 -225 -2 -14 -6 -59 -9 -100 -4 -41 -9 -91 -11 -110
-3 -19 -7 -59 -10 -88 -10 -103 -66 -329 -97 -390 -10 -19 -17 -22 -50 -17
-60 9 -153 40 -154 50 0 6 -4 44 -8 85 -4 41 -9 91 -11 110 -2 19 -7 75 -11
125 -3 49 -8 101 -9 115 -2 14 -7 85 -10 158 -8 151 -18 130 95 216 121 93
258 176 291 176 9 0 20 -7 23 -16z m3396 -56 c103 -46 145 -97 169 -203 15
-68 24 -215 12 -215 -35 0 -351 420 -351 467 0 15 79 -7 170 -49z m-4090 -148
c-11 -21 -81 -46 -161 -56 -78 -10 -71 2 109 190 l57 59 3 -86 c1 -48 -2 -96
-8 -107z m3664 -8 c69 -105 160 -270 280 -510 l76 -152 -34 -54 c-19 -30 -39
-56 -44 -60 -14 -8 -320 308 -371 382 -60 89 -111 200 -111 243 0 49 112 265
132 253 4 -3 36 -49 72 -102z m352 -35 c55 -90 57 -83 -56 -168 -59 -45 -100
-61 -100 -41 0 4 -36 71 -80 148 -44 76 -80 145 -80 151 0 9 12 11 39 8 98
-12 121 -9 149 19 l27 27 27 -33 c15 -18 48 -68 74 -111z m314 67 c19 -38 65
-110 101 -160 79 -106 92 -129 85 -152 -7 -22 -46 -46 -56 -35 -4 4 -55 102
-113 216 -103 203 -105 208 -79 205 22 -2 33 -15 62 -74z m-4333 -162 c-3 -48
-9 -95 -12 -104 -4 -11 -55 -32 -146 -62 -77 -25 -146 -46 -153 -46 -21 0 82
230 109 242 15 7 181 54 204 57 2 1 1 -38 -2 -87z m2626 42 c-4 -42 -14 -130
-18 -154 -2 -14 -6 -45 -10 -70 -3 -25 -8 -63 -11 -85 -3 -22 -7 -51 -9 -65
-2 -14 -6 -45 -10 -70 -4 -25 -9 -58 -11 -75 -14 -102 -28 -165 -37 -165 -17
0 -471 226 -496 247 -47 38 -55 31 513 417 71 48 92 53 89 20z m-2907 -56
c-35 -83 -118 -248 -137 -272 -21 -26 -71 -36 -84 -17 -8 14 38 89 144 236 59
82 103 111 77 53z m4657 -93 c41 -82 49 -122 32 -154 l-12 -23 -26 28 c-28 30
-43 83 -53 184 -5 58 -4 63 10 50 8 -8 30 -46 49 -85z m-2738 27 c86 -65 135
-106 135 -114 0 -12 -39 -30 -277 -126 -233 -96 -227 -94 -338 -71 -73 16 -85
20 -85 28 0 13 349 263 441 315 23 14 48 22 53 19 6 -4 38 -27 71 -51z m2465
-27 c8 -33 15 -67 17 -75 1 -8 23 -98 47 -200 24 -102 42 -186 41 -188 -1 -1
-26 9 -56 22 -88 38 -145 117 -229 314 l-23 54 24 22 c61 56 154 125 159 119
4 -5 13 -35 20 -68z m60 37 c36 -37 104 -122 123 -152 12 -19 14 -34 7 -65 -5
-22 -12 -56 -15 -75 -8 -45 -25 -112 -33 -124 -7 -12 -21 35 -72 237 -58 230
-58 231 -10 179z m-3927 -19 c7 -11 19 -116 32 -273 3 -36 8 -90 11 -120 14
-142 15 -135 -46 -259 -91 -182 -159 -355 -152 -383 7 -29 -489 -278 -553
-278 -20 0 -19 27 6 192 l11 76 94 67 c116 82 281 214 314 250 28 31 19 27
-54 -22 -27 -18 -51 -32 -53 -29 -3 2 2 17 10 33 8 15 31 78 51 140 37 116 39
145 16 248 -18 79 -12 147 16 190 60 90 92 113 209 151 80 26 82 27 88 17z
m-325 -125 c-12 -18 -66 -91 -118 -163 -53 -71 -143 -197 -200 -280 -58 -82
-111 -155 -119 -161 -12 -9 -81 -12 -113 -6 -18 4 29 213 56 251 56 78 166
211 206 250 36 35 70 55 165 92 66 27 126 48 133 49 9 0 6 -11 -10 -32z m4622
-8 c0 -5 -4 -10 -9 -10 -6 0 -13 5 -16 10 -3 6 1 10 9 10 9 0 16 -4 16 -10z
m-1016 -34 c21 -45 20 -69 -4 -84 -58 -36 -385 -215 -615 -337 -143 -75 -284
-153 -314 -173 -54 -37 -54 -38 -81 -132 -14 -52 -35 -115 -47 -140 -22 -50
-349 -611 -394 -677 -32 -46 -77 -75 -274 -178 -71 -37 -139 -74 -150 -81 -41
-29 -15 -18 210 86 82 38 158 70 160 68 4 -5 -94 -262 -103 -269 -4 -4 -52
-12 -107 -19 -115 -15 -104 -13 -257 -35 -64 -8 -131 -17 -150 -19 -58 -6
-152 -18 -169 -21 -9 -2 -52 -6 -95 -10 -43 -3 -91 -8 -106 -11 -36 -7 -47 16
-41 91 5 73 40 237 51 244 549 372 744 492 1083 670 173 91 185 106 225 280
15 64 33 128 41 143 19 39 60 66 223 150 225 117 693 380 815 461 56 36 79 35
99 -7z m-1631 -35 c36 -37 57 -68 57 -83 0 -38 -194 -668 -206 -668 -22 0
-519 511 -519 533 0 15 123 77 285 145 69 28 168 69 220 91 52 22 98 40 101
40 3 1 31 -26 62 -58z m2621 -8 c33 -66 66 -178 65 -222 0 -33 -17 -90 -18
-64 -2 20 -41 106 -47 101 -3 -3 6 -33 19 -65 19 -48 25 -79 26 -159 1 -124
-8 -112 -56 70 -19 72 -45 166 -58 209 l-24 78 26 49 c14 28 30 50 34 50 5 0
19 -21 33 -47z m85 -10 c22 -27 66 -158 77 -228 8 -54 2 -45 -36 50 -80 200
-90 241 -41 178z m-224 -39 c18 -38 50 -146 95 -316 27 -102 27 -108 10 -113
-41 -13 -86 21 -148 109 -54 78 -59 90 -52 119 4 18 18 75 30 127 30 129 36
135 65 74z m-4849 -33 c-20 -37 -153 -177 -162 -168 -8 8 64 131 97 167 13 14
36 26 52 28 27 2 27 1 13 -27z m369 -2 c15 -46 29 -156 27 -201 -2 -34 -46
-166 -86 -259 -8 -20 -29 -51 -46 -67 -52 -53 -204 -162 -224 -162 -6 0 -3 49
9 140 2 19 7 58 10 85 10 82 15 106 30 135 18 35 189 264 227 305 15 16 28 33
28 38 0 16 19 6 25 -14z m1317 -58 c-1 -6 -28 -44 -60 -84 -61 -75 -156 -209
-310 -438 -51 -75 -98 -142 -107 -149 -12 -10 -14 -7 -10 22 2 18 6 60 10 93
3 33 8 71 10 85 2 14 6 52 10 85 3 33 8 71 10 85 2 14 6 52 10 85 6 66 -4 54
138 176 114 98 120 100 220 73 47 -12 81 -27 79 -33z m2559 -98 c88 -86 159
-160 159 -164 0 -4 -44 -81 -98 -171 -117 -194 -176 -298 -168 -298 2 0 29 37
59 83 30 45 84 128 121 185 37 56 69 102 71 102 4 0 -2 -59 -15 -160 -5 -41
-12 -100 -15 -130 -12 -120 -37 -220 -58 -231 -22 -13 -370 -7 -399 5 -28 13
-23 64 38 333 30 136 70 323 89 415 32 162 40 188 52 188 3 0 77 -71 164 -157z
m-237 115 c-6 -37 -46 -262 -48 -273 -2 -5 -6 -31 -10 -57 -6 -36 -13 -49 -30
-54 -51 -14 -815 -255 -868 -273 -37 -12 -41 -3 -28 70 21 113 19 111 295 254
83 43 164 85 180 95 17 9 71 39 120 65 50 26 126 68 170 93 93 53 195 102 211
102 6 0 10 -10 8 -22z m-1269 -116 c140 -71 250 -133 250 -140 0 -8 -20 -25
-45 -39 -25 -14 -68 -42 -95 -64 -38 -28 -70 -43 -125 -55 -41 -9 -149 -34
-239 -55 -90 -22 -165 -39 -168 -39 -8 0 7 57 58 219 60 193 99 301 108 301 3
-1 119 -58 256 -128z m-929 -129 c268 -283 385 -416 375 -426 -4 -4 -50 -19
-102 -32 -174 -44 -419 -130 -647 -227 -51 -22 -100 -37 -108 -34 -17 7 -18
-5 -1 -28 12 -16 24 -13 172 44 88 34 169 66 180 70 42 19 195 69 315 104 69
20 155 46 191 56 l66 20 23 60 c12 32 28 64 34 69 23 20 233 74 361 95 17 2
49 7 73 11 l42 7 0 -40 c0 -22 -11 -80 -25 -128 -32 -111 -37 -116 -260 -230
-213 -110 -301 -163 -612 -367 -462 -304 -482 -316 -494 -294 -5 7 -28 85 -53
173 -42 148 -73 241 -140 416 l-26 67 34 65 c49 93 451 686 466 686 3 0 64
-62 136 -137z m2830 78 c28 -13 44 -26 44 -38 0 -10 -14 -53 -31 -96 -23 -57
-36 -77 -46 -72 -43 16 -143 92 -143 108 0 10 16 43 36 74 33 51 37 55 65 49
17 -3 51 -15 75 -25z m494 -51 c41 -87 43 -102 15 -195 -37 -128 -65 -76 -71
133 -3 96 -1 142 6 142 6 0 28 -36 50 -80z m-5309 13 c3 -42 -27 -150 -48
-173 -11 -12 -13 -11 -13 11 0 36 20 141 31 161 12 23 29 23 30 1z m4989 -117
c14 -30 16 -45 8 -75 -12 -43 -52 -124 -81 -163 -21 -29 -72 -47 -89 -30 -28
28 3 197 59 320 l26 56 29 -34 c17 -19 38 -52 48 -74z m-3912 45 c35 -11 74
-26 86 -35 22 -14 25 -13 45 8 19 20 27 22 74 15 28 -3 55 -5 58 -3 12 7 29
-22 25 -42 -2 -10 -7 -50 -11 -87 -3 -37 -8 -76 -10 -85 -1 -9 -6 -44 -9 -77
-4 -33 -9 -71 -11 -85 -9 -55 -26 -241 -31 -350 -11 -189 -10 -187 -26 -187
-7 -1 -40 -8 -73 -17 -80 -22 -106 -15 -134 35 -29 50 -30 127 -6 250 8 37 19
289 13 289 -3 0 -11 -57 -18 -127 -7 -71 -13 -135 -15 -143 -2 -8 -6 -35 -9
-60 -8 -60 -15 -92 -20 -97 -4 -4 -127 218 -189 343 l-35 70 47 110 c61 140
118 254 138 276 20 23 33 22 111 -1z m3634 -88 l80 -47 -7 -65 c-8 -82 -40
-178 -99 -303 -39 -81 -51 -98 -78 -107 -59 -21 -61 -19 -53 62 3 39 8 88 11
107 8 57 12 87 30 248 9 83 21 152 27 152 5 0 46 -21 89 -47z m409 -44 c44
-47 42 -84 -6 -184 -46 -96 -121 -177 -200 -216 -59 -29 -198 -60 -211 -46
-16 15 76 221 104 232 9 4 35 9 57 12 49 5 74 31 133 142 55 103 74 112 123
60z m-4946 -162 c-17 -117 -39 -180 -72 -210 -17 -15 -218 -127 -229 -127 -2
0 -2 6 1 13 2 6 31 100 65 207 73 232 74 236 92 237 53 4 116 16 133 27 18 12
20 11 23 -11 2 -13 -4 -74 -13 -136z m3887 -29 c-22 -95 -46 -206 -53 -245 -7
-40 -15 -73 -18 -74 -3 0 -15 -3 -26 -5 -11 -3 -89 -7 -173 -11 l-153 -6 6
139 c6 145 2 174 -10 64 -4 -36 -8 -72 -10 -80 -2 -8 -6 -46 -10 -84 l-8 -68
-104 -50 c-88 -41 -544 -248 -650 -294 -18 -8 -33 -10 -33 -5 0 12 240 429
302 526 35 54 53 73 79 82 19 6 180 61 359 123 267 92 461 156 525 174 6 2 11
-1 13 -5 2 -5 -15 -86 -36 -181z m-4102 100 c-38 -137 -133 -417 -140 -413
-11 7 -44 117 -42 142 1 12 22 52 46 87 25 36 66 108 92 160 27 52 51 93 55
91 3 -3 -1 -33 -11 -67z m5274 9 c5 -32 -4 -60 -63 -190 -38 -84 -72 -162 -76
-174 -8 -27 -31 -29 -79 -6 l-35 16 70 76 c78 85 133 186 145 266 3 28 9 54
11 58 9 15 21 -6 27 -46z m-5351 -5 c-3 -12 -9 -22 -14 -22 -5 0 -3 11 3 25
13 30 20 28 11 -3z m5377 -203 c-35 -91 -120 -202 -120 -156 0 16 105 233 123
256 22 26 20 -42 -3 -100z m-4436 -152 c29 -51 81 -144 114 -207 59 -113 129
-237 190 -335 17 -27 52 -90 77 -138 42 -79 46 -93 38 -125 -6 -24 -14 -37
-25 -37 -31 0 -842 654 -876 707 -10 14 6 25 116 81 70 36 165 86 212 110 46
25 88 43 92 41 5 -3 32 -47 62 -97z m-690 11 c-14 -124 -55 -262 -96 -322 -26
-38 -137 -167 -158 -183 -35 -27 -83 62 -75 140 8 71 29 150 41 154 5 2 24
-11 42 -28 40 -40 41 -29 1 33 -17 26 -29 54 -26 61 2 6 59 45 126 85 66 40
123 78 126 83 13 20 22 8 19 -23z m-374 -63 c16 -41 21 -76 21 -137 -1 -89
-31 -208 -54 -208 -9 0 -3 283 7 335 3 11 5 23 5 28 2 15 12 6 21 -18z m5225
6 c-16 -13 -203 -67 -295 -85 -14 -2 -43 -8 -65 -14 -41 -9 -64 -8 -91 2 -32
12 1 26 134 56 75 17 153 35 172 40 47 11 156 12 145 1z m90 -82 c-6 -31 -14
-38 -53 -49 -35 -10 -233 -54 -290 -65 -15 -3 -52 -11 -84 -18 -54 -13 -57
-13 -66 7 -25 51 -24 52 46 65 37 6 139 29 227 51 88 21 169 40 180 42 27 6
44 -9 40 -33z m-1063 -15 c-60 -36 -46 -41 25 -8 52 25 69 28 167 28 73 1 110
-3 113 -10 5 -15 -107 -99 -205 -154 -167 -93 -461 -240 -465 -233 -10 16 -1
363 9 373 11 11 140 23 299 28 l100 3 -43 -27z m-3640 -77 c328 -274 406 -342
401 -350 -3 -6 -48 -7 -107 -3 -55 3 -148 8 -206 11 -58 4 -111 8 -117 10 -7
3 -13 0 -13 -5 0 -6 17 -10 38 -11 20 0 44 -2 52 -3 8 -2 109 -14 224 -27
l209 -23 165 -136 c91 -74 170 -142 175 -152 13 -20 -29 -80 -71 -102 -24 -12
-88 -20 -144 -17 -9 1 -47 26 -85 56 -93 75 -269 179 -513 304 -113 57 -208
109 -212 115 -3 5 -21 59 -38 118 l-32 108 21 70 c23 75 27 80 86 97 67 19 77
15 167 -60z m1020 -32 c42 -108 63 -183 54 -192 -8 -8 -96 85 -107 115 -17 45
-8 196 11 175 4 -4 23 -48 42 -98z m3059 74 c63 -44 60 -66 -25 -163 -50 -58
-67 -69 -61 -38 2 9 6 53 8 98 5 80 18 124 38 124 6 0 24 -9 40 -21z m-844
-181 c-3 -98 -9 -182 -12 -187 -12 -20 -206 -103 -395 -171 -245 -88 -221 -74
-403 -218 -62 -49 -76 -48 -139 9 l-37 34 33 95 c47 135 110 257 138 266 12 4
54 21 93 39 38 18 185 84 325 148 140 63 284 129 319 146 35 16 69 27 74 24 6
-4 8 -73 4 -185z m731 116 c5 -32 -31 -79 -208 -275 -23 -25 -26 -35 -25 -108
1 -45 -1 -81 -4 -81 -6 1 -69 86 -151 203 -20 28 -30 51 -24 56 5 4 50 30 99
56 50 26 135 76 190 111 55 35 105 62 110 60 6 -1 11 -11 13 -22z m681 1 c-8
-7 -42 -23 -76 -34 -71 -24 -73 -24 -73 -12 0 11 110 56 141 58 19 2 20 0 8
-12z m-209 -70 c-11 -13 -187 -75 -214 -75 -45 0 -21 55 32 70 131 38 211 40
182 5z m-286 7 c6 -11 -14 -92 -23 -92 -4 0 -16 -8 -27 -18 -10 -10 -35 -30
-55 -45 -72 -54 -64 -27 24 84 61 78 71 87 81 71z m422 -39 c4 -13 0 -41 -8
-61 -12 -32 -22 -40 -78 -63 -113 -45 -370 -103 -370 -83 0 3 7 19 16 37 36
71 52 79 296 152 48 14 93 32 100 39 17 18 37 9 44 -21z m-622 -60 c-1 -27 -5
-86 -8 -133 -13 -217 -61 -313 -195 -394 -73 -45 -103 -52 -125 -31 -26 27
-19 60 27 116 111 137 105 125 101 208 l-4 76 96 103 c53 56 100 102 104 102
4 0 6 -21 4 -47z m-4244 -8 c11 -25 26 -70 34 -100 l14 -55 -35 -15 c-62 -26
-117 -22 -157 11 -19 16 -35 31 -35 34 -2 9 145 170 155 170 3 0 13 -20 24
-45z m1323 -75 c43 -44 75 -85 72 -90 -3 -5 -47 -39 -97 -75 l-91 -65 -60 97
c-97 159 -110 183 -95 188 31 12 145 31 168 29 16 -2 52 -31 103 -84z m3086
53 c-15 -41 -97 -194 -119 -223 l-19 -25 0 45 c1 26 9 59 20 79 16 27 118 150
126 151 1 0 -2 -12 -8 -27z m-4663 -91 c12 -27 14 -40 5 -58 -17 -37 -29 -29
-61 39 -30 62 -36 88 -23 100 10 11 60 -41 79 -81z m4099 1 c79 -94 155 -197
155 -210 0 -8 -28 -47 -62 -87 -35 -40 -71 -82 -80 -94 -11 -14 -29 -22 -49
-22 -47 0 -188 60 -291 124 -26 15 -23 25 24 95 80 120 205 239 253 241 6 0
29 -21 50 -47z m955 17 c-15 -28 -142 -133 -239 -197 -100 -66 -220 -121 -286
-130 -44 -6 -47 -5 -37 13 33 60 93 103 181 130 26 8 77 39 120 73 52 42 99
69 165 95 107 41 110 42 96 16z m-1204 -97 c-15 -21 -51 -72 -80 -113 -44 -63
-57 -75 -79 -73 -41 3 -101 21 -122 37 -20 14 -20 14 0 36 19 22 296 162 304
154 2 -2 -8 -21 -23 -41z m-3754 -26 c52 -70 70 -117 45 -117 -16 0 -136 90
-137 102 0 7 40 78 44 78 1 0 23 -28 48 -63z m4655 29 c-5 -16 -87 -64 -119
-70 -35 -6 -36 9 -5 48 31 39 136 58 124 22z m-4360 -35 c29 -11 92 -41 140
-65 291 -149 526 -301 496 -319 -10 -6 -376 55 -462 78 -71 18 -170 60 -281
120 -68 37 -75 43 -81 77 -3 20 -18 55 -33 78 -30 46 -28 48 49 52 85 5 118 1
172 -21z m1293 -22 c0 -6 -22 -61 -49 -122 -27 -62 -61 -148 -77 -191 -15 -43
-38 -91 -51 -107 -34 -40 -203 -101 -203 -73 0 4 22 45 49 93 27 47 72 133
100 191 60 124 60 125 131 176 72 53 100 62 100 33z m110 -180 c-12 -68 -23
-137 -26 -154 -8 -46 -72 -142 -142 -212 -23 -23 -26 -23 -34 -8 -37 66 69
424 139 470 24 16 74 35 80 30 2 -1 -6 -57 -17 -126z m-1680 -11 c7 -24 15
-49 16 -57 2 -8 5 -26 9 -40 5 -25 5 -26 -11 -6 -24 30 -94 180 -94 201 1 30
64 -48 80 -98z m3370 82 c0 -5 -10 -12 -22 -16 -13 -4 -45 -17 -73 -29 -27
-12 -63 -28 -80 -35 -16 -6 -79 -33 -140 -60 -60 -26 -112 -45 -115 -43 -10
10 77 76 137 103 51 23 184 70 263 93 17 5 30 0 30 -13z m2 -52 c-3 -13 -22
-63 -42 -113 -26 -63 -45 -94 -61 -102 -13 -6 -78 -27 -144 -46 -86 -25 -122
-32 -127 -23 -4 6 -13 35 -19 65 -9 43 -8 56 3 66 7 7 90 45 183 84 94 40 179
76 190 81 11 5 21 9 22 9 0 1 -1 -9 -5 -21z m161 -3 c38 -8 175 -59 221 -82
45 -23 48 -27 32 -38 -15 -11 -79 -26 -218 -49 -91 -15 -219 -28 -224 -23 -7
7 3 34 52 144 l32 71 44 -10 c23 -5 51 -11 61 -13z m-3333 -70 c0 -6 -29 5
-70 28 -62 34 -57 40 8 8 34 -17 62 -33 62 -36z m-21 -33 c24 -18 30 -27 20
-33 -18 -11 -41 4 -74 47 -27 35 -27 36 -4 24 13 -7 39 -24 58 -38z m4171 27
c0 -21 -103 -108 -171 -144 -67 -35 -146 -51 -150 -30 -2 11 9 17 121 70 41
19 100 53 130 75 59 41 70 46 70 29z m-4224 -76 c8 -29 -1 -53 -19 -53 -19 0
-50 102 -39 124 7 12 51 -42 58 -71z m214 12 c23 -8 92 -24 153 -36 62 -12
121 -23 132 -25 35 -7 208 -33 265 -40 82 -10 91 -19 34 -37 -177 -57 -451
-79 -614 -51 -44 8 -130 40 -154 59 -19 14 -19 15 0 36 17 19 132 109 139 109
1 0 21 -7 45 -15z m2380 -20 c22 -15 37 -31 34 -36 -15 -25 -396 -260 -520
-320 -211 -103 -421 -109 -608 -19 -83 40 -113 72 -99 103 18 40 155 197 172
198 71 4 104 7 161 13 36 4 76 9 90 11 14 2 52 7 85 10 100 11 128 15 240 30
11 1 47 6 80 10 33 4 68 9 78 11 9 1 54 6 100 10 45 3 83 8 85 9 11 10 69 -7
102 -30z m1270 1 c0 -16 -34 -43 -98 -75 -69 -35 -630 -216 -640 -206 -6 6 27
107 51 155 l22 44 155 22 c85 13 205 33 265 47 135 29 245 35 245 13z m-1046
-66 c26 -71 12 -79 -57 -33 -31 21 -57 41 -57 45 0 4 17 19 37 32 44 30 52 25
77 -44z m-38 -88 c30 -24 64 -57 74 -75 19 -30 19 -33 3 -44 -33 -25 -127 15
-205 88 l-53 50 34 29 c34 29 35 29 63 12 16 -9 54 -36 84 -60z m359 46 c-2
-7 -18 -52 -36 -100 -28 -79 -34 -88 -58 -89 -90 -4 -125 11 -145 65 -19 50
-20 66 -3 66 6 0 59 16 117 34 118 39 131 41 125 24z m-2116 -25 c-18 -48
-107 -188 -151 -237 -51 -59 -117 -102 -223 -145 -198 -82 -337 -105 -405 -66
-18 11 -47 37 -64 58 -29 36 -31 44 -30 112 2 82 17 113 70 146 27 16 50 20
110 20 42 0 79 -2 81 -5 3 -3 -25 -48 -62 -101 -37 -53 -65 -98 -63 -100 2 -3
35 36 74 85 38 49 72 89 76 89 3 1 49 -37 102 -84 53 -47 96 -82 96 -76 0 5
-39 50 -87 101 -49 51 -89 96 -91 101 -2 5 9 9 25 10 33 1 46 3 188 30 61 12
155 37 210 55 55 19 112 34 127 34 26 0 27 -2 17 -27z m3039 -25 c-24 -44 -69
-83 -87 -77 -12 4 85 119 101 119 5 0 -1 -19 -14 -42z m-383 -5 c-258 -158
-431 -253 -449 -247 -32 10 -120 61 -124 72 -4 13 168 74 508 181 125 40 137
38 65 -6z m304 23 c-6 -6 -300 -245 -369 -300 -33 -27 -63 -46 -65 -44 -7 7
252 274 304 314 35 27 53 34 89 34 25 0 43 -2 41 -4z m-196 -20 c-4 -8 -61
-71 -127 -140 -65 -69 -134 -147 -155 -173 -72 -94 -313 -315 -327 -300 -3 3
-6 19 -6 36 -1 34 11 50 120 155 67 64 112 125 56 75 -105 -92 -175 -151 -178
-148 -4 5 -26 95 -26 108 0 5 30 29 68 52 80 51 575 349 580 349 2 0 -1 -6 -5
-14z m-3645 -25 c24 -9 44 -20 45 -24 1 -3 -14 -18 -32 -32 l-35 -25 -28 45
c-15 25 -28 47 -28 50 0 10 36 4 78 -14z m2482 -30 c28 -27 50 -52 50 -54 0
-2 -17 -3 -37 -1 -21 2 -69 5 -106 7 -38 3 -73 9 -79 15 -12 12 75 82 104 82
10 0 41 -22 68 -49z m-1354 31 c6 -4 19 -31 29 -61 31 -96 122 -165 290 -222
53 -18 93 -23 165 -24 89 0 193 9 233 21 25 8 21 -7 -10 -35 -150 -131 -380
-202 -638 -197 -118 2 -139 5 -228 35 -115 40 -169 75 -198 133 -27 52 -21 92
22 155 59 85 120 140 164 148 22 4 63 17 90 30 56 26 65 28 81 17z m2645 -104
c0 -24 1 -68 2 -98 l0 -55 -69 2 c-38 1 -88 4 -111 8 l-41 6 46 42 c26 23 49
44 52 47 25 25 105 90 111 90 5 0 9 -19 10 -42z m-1532 -23 c-21 -21 -82 -38
-76 -22 7 22 70 58 81 47 7 -7 5 -15 -5 -25z m406 1 c11 -3 23 -5 28 -5 39 -4
-71 -59 -206 -102 -47 -15 -63 -16 -74 -7 -16 13 -46 69 -58 107 l-7 24 148
-7 c82 -3 158 -8 169 -10z m218 -27 c38 -10 39 -11 34 -50 -2 -23 -10 -46 -17
-52 -13 -13 -21 -4 -68 75 -21 35 -22 38 -5 38 10 0 35 -5 56 -11z m-690 -156
c36 -75 65 -139 63 -141 -15 -15 -267 143 -287 180 -11 20 -9 21 24 15 20 -3
59 -22 89 -41 78 -53 90 -44 19 13 -34 28 -63 53 -64 57 -2 10 61 54 78 54 6
0 41 -62 78 -137z m150 80 c41 -68 90 -173 84 -179 -8 -8 -134 46 -150 64 -16
19 -67 113 -67 125 0 11 62 47 82 47 10 0 31 -24 51 -57z m461 15 c33 -56 24
-61 -132 -67 -21 -1 -22 -5 -18 -41 2 -22 1 -42 -3 -45 -5 -2 -48 15 -96 40
l-88 44 39 16 c31 13 148 57 234 88 30 11 39 6 64 -35z m275 -34 c8 -7 -23
-36 -58 -53 -59 -30 -93 -14 -85 38 5 32 12 76 13 77 1 2 125 -58 130 -62z
m646 -39 c11 -1 30 -3 42 -4 27 -1 31 -20 21 -94 -10 -72 -47 -146 -104 -208
-54 -57 -74 -67 -314 -154 -336 -122 -420 -173 -512 -308 -39 -57 -97 -174
-134 -272 -14 -37 -25 -50 -39 -50 -17 0 -20 6 -18 40 2 45 41 172 71 231 11
22 38 59 60 84 21 25 51 62 65 83 46 67 64 77 402 219 263 111 401 174 409
187 3 4 -49 47 -114 96 -65 50 -116 94 -113 98 3 5 24 22 46 39 41 30 43 30
127 23 47 -4 94 -8 105 -10z m-1190 -65 c106 -64 122 -83 152 -178 43 -139 9
-131 -122 28 -62 76 -126 180 -119 192 3 5 8 7 12 4 4 -2 39 -23 77 -46z m311
41 c7 -1 15 -9 18 -18 8 -19 -22 -223 -34 -236 -15 -17 -91 43 -111 86 -22 49
-25 115 -6 141 13 18 75 35 107 30 8 -1 20 -3 26 -3z m110 -66 c22 -22 41 -85
40 -133 -1 -42 -3 -44 -59 -74 -31 -17 -60 -29 -63 -26 -6 7 24 191 37 225 10
27 24 29 45 8z m593 -84 l104 -65 -84 -39 c-137 -63 -409 -174 -574 -233 -81
-29 -99 -35 -140 -40 -42 -6 -12 7 90 39 109 34 188 71 231 109 20 18 79 96
131 175 89 134 96 142 116 131 12 -6 69 -41 126 -77z m-1362 -4 c50 -25 94
-50 97 -55 5 -9 -37 -188 -47 -198 -3 -3 -16 11 -30 33 -31 49 -167 284 -167
289 0 5 42 -15 147 -69z m211 33 c40 -12 92 -58 92 -81 0 -14 -47 -11 -88 6
-39 17 -115 93 -106 107 3 4 17 2 32 -5 15 -8 46 -20 70 -27z m885 -41 c-43
-73 -144 -189 -187 -214 -48 -28 -119 -57 -193 -80 -48 -15 -48 -3 0 21 72 37
177 114 281 206 61 54 112 98 114 98 2 0 -5 -14 -15 -31z m-907 -110 c8 -16
17 -48 19 -72 3 -23 8 -60 11 -82 14 -104 15 -157 4 -210 -7 -31 -15 -53 -20
-49 -7 8 -45 167 -65 269 -8 41 -8 140 0 164 8 26 31 17 51 -20z m427 -17 c18
-16 22 -58 7 -82 -12 -19 -14 -15 -45 54 l-25 57 22 -6 c13 -4 31 -14 41 -23z
m-317 1 c-2 -10 -10 -51 -17 -90 -7 -40 -15 -73 -19 -73 -8 0 -28 152 -22 169
2 6 17 11 34 11 23 0 28 -4 24 -17z m524 1 c0 -17 -8 -26 -75 -73 -54 -38 -85
-48 -85 -26 0 22 50 68 102 94 52 25 58 26 58 5z m-417 -30 c32 -17 49 -33 42
-44 -2 -3 -6 -50 -10 -105 -8 -137 -34 -312 -69 -470 -10 -44 -31 -106 -47
-136 -18 -37 -48 -58 -50 -36 -2 23 3 192 6 232 2 22 6 72 10 110 6 78 24 257
30 295 27 185 27 185 88 154z m154 -101 c21 -52 16 -87 -33 -195 -60 -134 -68
-141 -60 -53 4 39 9 99 11 135 9 117 15 154 27 162 16 9 38 -10 55 -49z m-422
-120 c2 -18 9 -52 14 -75 31 -137 31 -132 -14 -266 -37 -112 -47 -127 -50 -74
-1 15 -6 77 -10 137 -13 169 -10 263 10 345 l19 75 13 -55 c7 -30 15 -70 18
-87z m514 -56 c-29 -42 -80 -96 -101 -108 -16 -8 -17 -7 -8 17 22 57 62 113
88 122 39 14 45 5 21 -31z m-164 -199 c-4 -18 -11 -39 -15 -48 -4 -8 -17 -36
-30 -62 -12 -27 -23 -48 -25 -48 -5 0 13 66 32 120 25 70 50 96 38 38z m-251
-63 c-1 -5 -5 -46 -9 -89 -3 -43 -8 -83 -11 -87 -10 -16 -32 -9 -29 9 2 9 12
62 21 116 11 63 20 92 24 80 4 -10 6 -23 4 -29z"/>
<path d="M3691 5104 c0 -11 3 -14 6 -6 3 7 2 16 -1 19 -3 4 -6 -2 -5 -13z"/>
<path d="M2169 4622 c-30 -31 -61 -66 -69 -77 -7 -11 -2 -8 13 7 14 14 34 33
44 40 29 22 77 77 72 83 -3 2 -30 -21 -60 -53z"/>
<path d="M3232 2286 c-83 -49 -123 -83 -47 -40 81 46 140 84 129 84 -5 0 -42
-20 -82 -44z"/>
<path d="M2160 2152 c0 -16 -24 -40 -93 -91 -92 -69 -128 -101 -110 -101 5 0
25 12 44 26 19 14 43 30 53 36 17 9 16 6 -4 -23 -29 -41 -23 -37 61 47 l65 66
38 -46 c21 -26 53 -72 72 -103 19 -31 35 -54 35 -50 1 4 2 11 3 16 0 5 4 12 8
16 7 7 -74 118 -141 195 -28 32 -30 33 -31 12z"/>
<path d="M2773 1868 c-168 -28 -423 -99 -423 -118 0 -5 33 0 73 11 59 17 259
64 367 86 14 3 30 6 35 7 6 2 27 6 48 11 20 4 39 10 41 14 7 10 -37 7 -141
-11z"/>
</g>
</svg>
