<?xml version="1.0" encoding="UTF-8"?>
<!DOCTYPE svg PUBLIC "-//W3C//DTD SVG 1.1//EN" "http://www.w3.org/Graphics/SVG/1.1/DTD/svg11.dtd">
<svg xmlns="http://www.w3.org/2000/svg" xmlns:xlink="http://www.w3.org/1999/xlink" version="1.1" width="274px" height="55px" viewBox="-0.5 -0.5 274 55" style="background-color: rgb(255, 255, 255);"><defs><style>@keyframes ge-flow-animation-nRoJFRBBZBgNkXwt9pEw {&#xa;  to {&#xa;    stroke-dashoffset: 0;&#xa;  }&#xa;}</style></defs><rect fill="#ffffff" width="100%" height="100%" x="0" y="0"/><g><g><path d="M 58 27 L 213.63 27" fill="none" stroke="rgb(0, 0, 0)" stroke-miterlimit="10" stroke-dasharray="3 3" pointer-events="stroke" style="animation: 188ms linear 0s infinite normal none running ge-flow-animation-nRoJFRBBZBgNkXwt9pEw; stroke-dashoffset: 6;"/><path d="M 218.88 27 L 211.88 30.5 L 213.63 27 L 211.88 23.5 Z" fill="rgb(0, 0, 0)" stroke="rgb(0, 0, 0)" stroke-miterlimit="10" pointer-events="all"/></g><g><rect x="0" y="3" width="58" height="48" fill="none" stroke="none" pointer-events="all"/><path d="M 3.77 35.2 L 54.23 35.2 L 54.23 6.74 L 3.77 6.74 Z M 0 5.94 C 0 4.28 1.56 3 2.81 3 L 55.11 3 C 56.63 3 58 4.47 58 5.88 L 58 39.7 C 58 41.22 56.73 42.68 55.12 42.68 L 35.4 42.68 C 35.42 44.3 35.42 45.93 36.04 47.3 C 36.48 48.33 37.43 48.97 38.82 49.26 C 39.04 49.31 39.17 49.51 39.17 49.76 L 39.17 50.49 C 39.17 50.71 38.88 51 38.68 51 L 19.27 51 C 19.07 51 18.83 50.78 18.83 50.54 L 18.83 49.79 C 18.85 49.55 18.96 49.37 19.22 49.32 C 20.81 48.91 21.63 48.23 22.08 47.03 C 22.56 45.74 22.58 44.18 22.6 42.68 L 2.9 42.68 C 1.33 42.68 0 41.18 0 39.75 Z" fill="#505050" stroke="none" pointer-events="all"/></g><g><path d="M 220 0.5 L 273 0.5 L 273 53.5 L 220 53.5 Z" fill="#e7157b" stroke="none" pointer-events="all"/><path d="M 242.01 38.84 L 244.23 38.84 L 244.23 37.32 L 242.01 37.32 Z M 245.74 38.84 L 248.01 38.84 L 248.01 37.32 L 245.74 37.32 Z M 236.67 7.83 L 226.83 12.71 L 226.83 43.05 L 236.67 46.38 Z M 238.18 17.48 L 238.18 37.32 L 240.45 37.32 L 240.45 38.84 L 238.18 38.84 L 238.18 47.44 C 238.18 47.68 238.06 47.91 237.86 48.06 C 237.73 48.15 237.58 48.2 237.42 48.2 C 237.34 48.2 237.26 48.19 237.18 48.16 L 225.83 44.32 C 225.53 44.22 225.32 43.93 225.32 43.6 L 225.32 12.23 C 225.32 11.94 225.48 11.68 225.74 11.55 L 237.09 5.92 C 237.32 5.8 237.6 5.81 237.82 5.95 C 238.04 6.09 238.18 6.34 238.18 6.6 L 238.18 15.96 L 240.45 15.96 L 240.45 17.48 Z M 249.53 38.84 L 251.8 38.84 L 251.8 37.32 L 249.53 37.32 Z M 249.58 17.48 L 251.8 17.48 L 251.8 15.96 L 249.58 15.96 Z M 245.79 17.48 L 248.01 17.48 L 248.01 15.96 L 245.79 15.96 Z M 242.01 17.48 L 244.23 17.48 L 244.23 15.96 L 242.01 15.96 Z M 266.17 12.71 L 256.33 7.83 L 256.33 46.38 L 266.17 43.05 Z M 267.68 43.6 C 267.68 43.93 267.47 44.22 267.17 44.32 L 255.82 48.16 C 255.74 48.19 255.66 48.2 255.58 48.2 C 255.42 48.2 255.27 48.15 255.14 48.06 C 254.94 47.91 254.82 47.68 254.82 47.44 L 254.82 38.84 L 253.36 38.84 L 253.36 37.32 L 254.82 37.32 L 254.82 17.48 L 253.36 17.48 L 253.36 15.96 L 254.82 15.96 L 254.82 6.6 C 254.82 6.34 254.96 6.09 255.18 5.95 C 255.4 5.81 255.68 5.8 255.91 5.92 L 267.26 11.55 C 267.52 11.68 267.68 11.94 267.68 12.23 Z M 248.72 22.33 L 247.31 21.79 L 243.52 31.7 L 244.94 32.25 Z M 253.84 27.18 C 254.14 26.88 254.14 26.4 253.84 26.1 L 250.82 23.05 L 249.75 24.13 L 252.24 26.64 L 249.75 29.15 L 250.82 30.23 Z M 242.18 30.23 L 239.16 27.18 C 238.86 26.88 238.86 26.4 239.16 26.1 L 242.18 23.05 L 243.25 24.13 L 240.76 26.64 L 243.25 29.15 Z" fill="#ffffff" stroke="none" pointer-events="all"/></g></g></svg>